<?xml version="1.0" encoding="UTF-8"?>
<svg version="1.1" xmlns="http://www.w3.org/2000/svg" width="1039" height="376">
<path d="M0 0 C311.52 0 623.04 0 944 0 C944 124.08 944 248.16 944 376 C632.48 376 320.96 376 0 376 C0 251.92 0 127.84 0 0 Z " fill="#FDFDFD" transform="translate(47,0)"/>
<path d="M0 0 C13.2 0 26.4 0 40 0 C40.33 24.75 40.66 49.5 41 75 C44.69624871 72.22781347 45.87806796 70.85805825 48 67 C50.03339648 63.94990528 50.84346689 63.3269396 54 61.8125 C54.70125 61.46832031 55.4025 61.12414062 56.125 60.76953125 C58 60 58 60 60 60 C60 59.34 60 58.68 60 58 C60.99 58 61.98 58 63 58 C63 57.34 63 56.68 63 56 C70.13402089 54.29536799 76.8637462 53.68934779 84.1875 53.75 C85.60579102 53.73839844 85.60579102 53.73839844 87.05273438 53.7265625 C101.57473106 53.76704193 114.55734554 59.86002084 125 69.75 C127 72 127 72 127 74 C127.66 74 128.32 74 129 74 C129.33 74.99 129.66 75.98 130 77 C130.66 77.33 131.32 77.66 132 78 C132 78.66 132 79.32 132 80 C132.66 80 133.32 80 134 80 C134 80.99 134 81.98 134 83 C134.66 83 135.32 83 136 83 C138.87217429 90.02680781 140.67021516 96.39845954 141 104 C141.66 104 142.32 104 143 104 C143 106.97 143 109.94 143 113 C143.66 113 144.32 113 145 113 C145 121.25 145 129.5 145 138 C144.34 138 143.68 138 143 138 C143.02320313 138.56847656 143.04640625 139.13695312 143.0703125 139.72265625 C143.28418139 148.87318968 140.15736641 156.52415717 137 165 C136.34 165 135.68 165 135 165 C133.92474806 167.65228812 132.90543849 170.28368454 132 173 C131.34 173 130.68 173 130 173 C129.74863281 173.57492187 129.49726562 174.14984375 129.23828125 174.7421875 C127.83830319 177.29482888 126.23840451 179.06233122 124.1875 181.125 C123.52105469 181.80820312 122.85460937 182.49140625 122.16796875 183.1953125 C119.86864715 185.10934237 117.81865249 186.04569183 115 187 C115 187.66 115 188.32 115 189 C113.35 189.33 111.7 189.66 110 190 C110 190.66 110 191.32 110 192 C108.62708132 192.48509793 107.25153297 192.96275513 105.875 193.4375 C105.10929688 193.70433594 104.34359375 193.97117187 103.5546875 194.24609375 C97.15551175 196.13453552 90.8701227 196.21421555 84.25 196.25 C83.3115625 196.270625 82.373125 196.29125 81.40625 196.3125 C72.45913098 196.3619316 64.84942651 194.33784097 57 190 C57 189.34 57 188.68 57 188 C56.26265625 187.91234375 55.5253125 187.8246875 54.765625 187.734375 C51.4766411 186.86102899 50.12216539 185.65838165 47.75 183.25 C46.72132813 182.23679687 46.72132813 182.23679687 45.671875 181.203125 C43.81588152 178.75737659 43.35883593 177.0184434 43 174 C42.01 174 41.02 174 40 174 C40.16371094 174.99128906 40.32742188 175.98257813 40.49609375 177.00390625 C41.06604226 180.99354579 41.09817505 184.90621941 41.0625 188.9375 C41.05798828 189.62134766 41.05347656 190.30519531 41.04882812 191.00976562 C41.0371956 192.67321604 41.01926694 194.3366205 41 196 C35.32169922 196.02464705 29.64342931 196.04283462 23.96508789 196.05493164 C22.03181415 196.05997256 20.09854424 196.06680519 18.1652832 196.07543945 C15.39273128 196.08751565 12.62022959 196.09323057 9.84765625 196.09765625 C8.54297142 196.10539818 8.54297142 196.10539818 7.21192932 196.11329651 C5.14094186 196.11349185 3.07005676 196.06208168 1 196 C-0.72495761 194.27504239 -0.12236029 192.06681089 -0.12908131 189.76716131 C-0.12616847 189.01133923 -0.12325563 188.25551716 -0.12025452 187.47679138 C-0.12110894 186.67964425 -0.12196337 185.88249711 -0.12284368 185.061194 C-0.12450092 182.36946835 -0.11897316 179.67780397 -0.11352539 176.98608398 C-0.11324355 175.06477866 -0.1134012 173.14347323 -0.1139679 171.22216797 C-0.11425597 165.98891366 -0.10835759 160.75568205 -0.10139394 155.52243304 C-0.0951621 150.0598021 -0.09455674 144.59717069 -0.09336853 139.13453674 C-0.09025471 128.78247776 -0.08204064 118.43042927 -0.07201904 108.07837492 C-0.06085947 96.29623148 -0.05534785 84.51408755 -0.05032361 72.73194015 C-0.03985807 48.48795293 -0.02151196 24.24398011 0 0 Z " fill="#030303" transform="translate(670,137)"/>
<path d="M0 0 C0.73205658 -0.00328308 1.46411316 -0.00656616 2.21835327 -0.00994873 C29.04078586 -0.04886385 29.04078586 -0.04886385 40.1875 6.3125 C40.1875 6.9725 40.1875 7.6325 40.1875 8.3125 C41.404375 8.4775 42.62125 8.6425 43.875 8.8125 C55.89313904 11.55842848 65.15728915 20.47045384 73.69042969 28.85498047 C75.11565218 30.24255031 76.57660368 31.59313942 78.0390625 32.94140625 C78.87179687 33.72386719 79.70453125 34.50632813 80.5625 35.3125 C81.65691406 36.3334375 81.65691406 36.3334375 82.7734375 37.375 C84.1875 39.3125 84.1875 39.3125 83.9140625 41.5625 C83.67429687 42.14 83.43453125 42.7175 83.1875 43.3125 C80.7125 43.8075 80.7125 43.8075 78.1875 44.3125 C78.1875 44.9725 78.1875 45.6325 78.1875 46.3125 C74.5575 46.9725 70.9275 47.6325 67.1875 48.3125 C67.1875 48.9725 67.1875 49.6325 67.1875 50.3125 C53.81856796 56.3125 53.81856796 56.3125 50.1875 56.3125 C50.1875 56.9725 50.1875 57.6325 50.1875 58.3125 C48 58.625 48 58.625 45.1875 58.3125 C42.82701795 56.26260769 40.8156478 54.06165078 38.80859375 51.66796875 C31.28517572 43.31490061 19.46722712 37.85934531 8.28173828 37.20019531 C-1.20441552 36.76558359 -9.85863814 37.32415595 -19.08984375 39.65625 C-21.8125 40.3125 -21.8125 40.3125 -24.8125 40.3125 C-24.8125 40.9725 -24.8125 41.6325 -24.8125 42.3125 C-25.8025 42.3125 -26.7925 42.3125 -27.8125 42.3125 C-27.8125 42.9725 -27.8125 43.6325 -27.8125 44.3125 C-28.8025 44.3125 -29.7925 44.3125 -30.8125 44.3125 C-31.1425 45.3025 -31.4725 46.2925 -31.8125 47.3125 C-33.4625 47.6425 -35.1125 47.9725 -36.8125 48.3125 C-36.8125 48.9725 -36.8125 49.6325 -36.8125 50.3125 C-38.1328125 51.5390625 -38.1328125 51.5390625 -39.9375 52.9375 C-46.08328926 58.06106874 -50.1698492 63.42777617 -51.8125 71.3125 C-52.4725 71.3125 -53.1325 71.3125 -53.8125 71.3125 C-53.8125 72.3025 -53.8125 73.2925 -53.8125 74.3125 C-54.4725 74.3125 -55.1325 74.3125 -55.8125 74.3125 C-56.3075 80.2525 -56.3075 80.2525 -56.8125 86.3125 C-57.4725 86.3125 -58.1325 86.3125 -58.8125 86.3125 C-58.41761819 99.30411141 -56.01647239 110.790837 -49.8125 122.3125 C-49.8125 122.9725 -49.8125 123.6325 -49.8125 124.3125 C-49.1525 124.3125 -48.4925 124.3125 -47.8125 124.3125 C-46.55078125 125.81640625 -46.55078125 125.81640625 -45.125 127.875 C-41.17122012 133.31748918 -37.05095227 138.50655858 -30.8125 141.3125 C-30.8125 141.9725 -30.8125 142.6325 -30.8125 143.3125 C-29.7296875 143.4671875 -29.7296875 143.4671875 -28.625 143.625 C-25.8125 144.3125 -25.8125 144.3125 -23.5625 145.75 C-20.31737848 147.59381905 -17.343707 148.19568278 -13.703125 148.8828125 C-11.8125 149.3125 -11.8125 149.3125 -10.8125 150.3125 C-8.73987924 150.40017112 -6.66429706 150.41945873 -4.58984375 150.41015625 C-3.32978516 150.40693359 -2.06972656 150.40371094 -0.77148438 150.40039062 C0.56901109 150.39203403 1.90950588 150.38356907 3.25 150.375 C4.59439942 150.3699866 5.9388006 150.36542342 7.28320312 150.36132812 C10.58467941 150.34949488 13.88606803 150.33300971 17.1875 150.3125 C17.1875 149.6525 17.1875 148.9925 17.1875 148.3125 C18.38375 147.879375 19.58 147.44625 20.8125 147 C23.50967767 145.99573172 25.97673751 144.91788125 28.5625 143.625 C31.1875 142.3125 31.1875 142.3125 33.1875 142.3125 C33.1875 141.6525 33.1875 140.9925 33.1875 140.3125 C35.08700953 138.44065323 37.1258337 136.78011624 39.171875 135.0703125 C41.31119702 133.30985363 41.31119702 133.30985363 43.1875 130.8125 C45.65030277 128.96539792 46.45626442 129.20808738 49.4375 129.5625 C50.675 129.81 51.9125 130.0575 53.1875 130.3125 C53.1875 130.9725 53.1875 131.6325 53.1875 132.3125 C53.91582031 132.42851562 54.64414062 132.54453125 55.39453125 132.6640625 C58.24191888 133.32513431 60.31764398 134.29257853 62.875 135.6875 C67.82854646 138.257385 72.80083182 139.90279748 78.1875 141.3125 C78.1875 141.9725 78.1875 142.6325 78.1875 143.3125 C79.8375 143.6425 81.4875 143.9725 83.1875 144.3125 C82.57806837 147.96074138 81.03299908 150.1284523 78.75 153 C78.13253906 153.78761719 77.51507813 154.57523438 76.87890625 155.38671875 C75.1875 157.3125 75.1875 157.3125 73.1875 158.3125 C72.8575 159.3025 72.5275 160.2925 72.1875 161.3125 C70.3671875 162.7421875 70.3671875 162.7421875 68.0625 164.1875 C65.10574359 166.07719169 62.20505354 167.98753666 59.375 170.0625 C53.35416667 174.3125 53.35416667 174.3125 49.1875 174.3125 C49.1875 174.9725 49.1875 175.6325 49.1875 176.3125 C47.2075 176.6425 45.2275 176.9725 43.1875 177.3125 C43.1875 177.9725 43.1875 178.6325 43.1875 179.3125 C40.5475 179.6425 37.9075 179.9725 35.1875 180.3125 C35.1875 180.9725 35.1875 181.6325 35.1875 182.3125 C28.38675959 184.21670731 22.26826251 185.72100553 15.1875 185.3125 C15.1875 185.9725 15.1875 186.6325 15.1875 187.3125 C11.07984358 187.33746472 6.97221736 187.35548366 2.86450195 187.36743164 C1.47093943 187.37241957 0.07738202 187.37921231 -1.31616211 187.38793945 C-8.88180078 187.43408795 -16.30704426 187.36808458 -23.8125 186.3125 C-23.8125 185.6525 -23.8125 184.9925 -23.8125 184.3125 C-25.7925 184.3125 -27.7725 184.3125 -29.8125 184.3125 C-29.8125 183.6525 -29.8125 182.9925 -29.8125 182.3125 C-30.71742188 182.23902344 -30.71742188 182.23902344 -31.640625 182.1640625 C-32.83945312 182.05191406 -32.83945312 182.05191406 -34.0625 181.9375 C-34.85140625 181.86789062 -35.6403125 181.79828125 -36.453125 181.7265625 C-38.898377 181.29742887 -40.66086903 180.52649362 -42.8125 179.3125 C-42.8125 178.6525 -42.8125 177.9925 -42.8125 177.3125 C-44.7925 176.9825 -46.7725 176.6525 -48.8125 176.3125 C-48.8125 175.6525 -48.8125 174.9925 -48.8125 174.3125 C-49.740625 174.168125 -50.66875 174.02375 -51.625 173.875 C-54.8125 173.3125 -54.8125 173.3125 -57.8125 172.3125 C-57.8125 171.6525 -57.8125 170.9925 -57.8125 170.3125 C-58.62460937 169.95671875 -58.62460937 169.95671875 -59.453125 169.59375 C-62.44500137 167.96902243 -64.92409399 165.9623123 -67.5625 163.8125 C-68.54734375 163.0184375 -69.5321875 162.224375 -70.546875 161.40625 C-71.29453125 160.7153125 -72.0421875 160.024375 -72.8125 159.3125 C-72.8125 158.6525 -72.8125 157.9925 -72.8125 157.3125 C-73.4725 157.3125 -74.1325 157.3125 -74.8125 157.3125 C-80.80194434 151.11941455 -89.8125 141.39665943 -89.8125 132.3125 C-90.4725 132.3125 -91.1325 132.3125 -91.8125 132.3125 C-92.1425 129.6725 -92.4725 127.0325 -92.8125 124.3125 C-93.4725 124.3125 -94.1325 124.3125 -94.8125 124.3125 C-95.47597691 122.86210861 -96.11710398 121.40149434 -96.75 119.9375 C-97.10964844 119.12539063 -97.46929687 118.31328125 -97.83984375 117.4765625 C-100.28581655 109.5197835 -99.97070548 101.00156209 -99.9375 92.75 C-99.94136719 91.75419922 -99.94523438 90.75839844 -99.94921875 89.73242188 C-99.94792969 88.78818359 -99.94664062 87.84394531 -99.9453125 86.87109375 C-99.94418457 86.01829834 -99.94305664 85.16550293 -99.94189453 84.28686523 C-99.8125 82.3125 -99.8125 82.3125 -98.8125 81.3125 C-98.415007 78.96526034 -98.06881277 76.60921452 -97.75 74.25 C-97.57339844 72.95964844 -97.39679688 71.66929687 -97.21484375 70.33984375 C-97.08207031 69.34082031 -96.94929687 68.34179688 -96.8125 67.3125 C-96.1525 67.3125 -95.4925 67.3125 -94.8125 67.3125 C-94.895 66.673125 -94.9775 66.03375 -95.0625 65.375 C-94.43112216 57.6406215 -89.28499535 50.12940686 -85.8125 43.3125 C-85.1525 43.3125 -84.4925 43.3125 -83.8125 43.3125 C-83.76996094 42.62800781 -83.72742188 41.94351563 -83.68359375 41.23828125 C-82.43477735 37.04382618 -79.86298224 34.61291529 -76.875 31.5 C-76.32392578 30.90251953 -75.77285156 30.30503906 -75.20507812 29.68945312 C-73.78891132 28.18380799 -72.30515578 26.74235119 -70.8125 25.3125 C-70.1525 25.3125 -69.4925 25.3125 -68.8125 25.3125 C-68.8125 24.6525 -68.8125 23.9925 -68.8125 23.3125 C-67.4925 22.9825 -66.1725 22.6525 -64.8125 22.3125 C-64.8125 21.6525 -64.8125 20.9925 -64.8125 20.3125 C-58.0625 16.3125 -58.0625 16.3125 -55.8125 16.3125 C-55.4825 15.3225 -55.1525 14.3325 -54.8125 13.3125 C-52.1953125 11.92578125 -52.1953125 11.92578125 -48.9375 10.625 C-47.86757813 10.18800781 -46.79765625 9.75101563 -45.6953125 9.30078125 C-42.8125 8.3125 -42.8125 8.3125 -39.8125 8.3125 C-39.8125 7.6525 -39.8125 6.9925 -39.8125 6.3125 C-29.43892369 2.86830866 -29.43892369 2.86830866 -23.8125 3.3125 C-23.8125 2.6525 -23.8125 1.9925 -23.8125 1.3125 C-15.91227503 0.05215283 -7.98173068 0.02917633 0 0 Z " fill="#040404" transform="translate(322.8125,147.6875)"/>
<path d="M0 0 C13.2 0 26.4 0 40 0 C40.02578125 5.84074219 40.0515625 11.68148437 40.078125 17.69921875 C40.10332249 21.42256854 40.12967771 25.14583943 40.16015625 28.86914062 C40.20831346 34.76538279 40.2524245 40.66144205 40.27099609 46.55786133 C40.2862567 51.31730324 40.32086669 56.07626325 40.36830902 60.83548927 C40.38302655 62.6416992 40.39103542 64.44797797 40.39188385 66.25424767 C40.40103928 75.98159788 40.79876993 84.4171808 44.14642334 93.64387512 C45 96 45 96 45 98 C46.65 98.66 48.3 99.32 50 100 C50 100.66 50 101.32 50 102 C50.598125 102.144375 51.19625 102.28875 51.8125 102.4375 C53.56150404 102.8872439 55.28677023 103.42892341 57 104 C65.22968343 104.64525796 73.01026147 104.87344243 80 100 C81.96143394 98.10773502 83.38698842 96.22975131 85 94 C85.53625 93.525625 86.0725 93.05125 86.625 92.5625 C92.41295564 85.98527769 92.13557188 76.37909953 92.20532227 68.11523438 C92.21522186 67.3727948 92.22512146 66.63035522 92.23532104 65.86541748 C92.26659673 63.44155938 92.29155734 61.01768176 92.31640625 58.59375 C92.33700519 56.9012403 92.35800238 55.2087354 92.37937927 53.51623535 C92.43429659 49.08418697 92.48383831 44.65209453 92.53222656 40.2199707 C92.59154893 34.89004754 92.65760822 29.56020406 92.72252655 24.23034668 C92.82015373 16.15361355 92.90927083 8.07682683 93 0 C105.87 0 118.74 0 132 0 C132 46.2 132 92.4 132 140 C119.13 140 106.26 140 93 140 C93 133.07 93 126.14 93 119 C88.26274693 123.33302703 88.26274693 123.33302703 86.5 126.5 C84.05817852 130.56970246 80.92502979 133.38331348 77 136 C76.01 136 75.02 136 74 136 C74 136.66 74 137.32 74 138 C66.36978826 142.73073128 59.97882746 143.16446728 51.125 143.125 C49.83529297 143.13080078 49.83529297 143.13080078 48.51953125 143.13671875 C43.25653385 143.12873241 38.20803676 142.76126755 33 142 C33 141.34 33 140.68 33 140 C32.278125 139.88011719 31.55625 139.76023437 30.8125 139.63671875 C23.13662801 137.89898662 17.59584892 134.26706671 13 128 C12.01 127.34 11.02 126.68 10 126 C9.27095914 124.35965807 8.61344757 122.68698082 8 121 C7.46375 119.948125 6.9275 118.89625 6.375 117.8125 C5 115 5 115 5 113 C4.34 113 3.68 113 3 113 C-0.79720445 101.06624924 -0.38526535 89.24141965 -0.29296875 76.85546875 C-0.28736353 74.63202706 -0.28309781 72.40858163 -0.28010559 70.18513489 C-0.26872974 64.37370313 -0.23932601 58.56250143 -0.20599365 52.75115967 C-0.17513517 46.80484121 -0.16156673 40.85848507 -0.14648438 34.91210938 C-0.11444853 23.27462298 -0.06174089 11.63736674 0 0 Z " fill="#040404" transform="translate(503,192)"/>
<path d="M0 0 C12.87 0 25.74 0 39 0 C39 64.35 39 128.7 39 195 C26.13 195 13.26 195 0 195 C0 130.65 0 66.3 0 0 Z " fill="#020202" transform="translate(431,137)"/>
<path d="M0 0 C0 0.66 0 1.32 0 2 C0.99 2 1.98 2 3 2 C3 2.66 3 3.32 3 4 C5.475 4.495 5.475 4.495 8 5 C8 5.66 8 6.32 8 7 C8.763125 7.226875 9.52625 7.45375 10.3125 7.6875 C15.77703557 10.35622667 17.91508306 17.51535365 20 23 C22.32419533 32.19181765 21.29731372 41.91330376 19 51 C18.34 51 17.68 51 17 51 C16.91492188 52.09441406 16.91492188 52.09441406 16.828125 53.2109375 C15.70675356 56.98763187 13.83389317 58.22550024 10.75 60.625 C9.31914063 61.75808594 9.31914063 61.75808594 7.859375 62.9140625 C0.88764045 68 0.88764045 68 -3 68 C-3 68.66 -3 69.32 -3 70 C-16.72609704 72.66075112 -30.65933801 72.26767547 -42.3984375 64.390625 C-46.89291189 61.10340425 -50.1081967 58.42316946 -52 53 C-52 52.34 -52 51.68 -52 51 C-52.66 51 -53.32 51 -54 51 C-54 49.68 -54 48.36 -54 47 C-54.66 47 -55.32 47 -56 47 C-56.78688445 44.22276075 -57.11949924 41.77389923 -57.09765625 38.890625 C-57.09443359 38.13652344 -57.09121094 37.38242188 -57.08789062 36.60546875 C-57.07951172 35.82816406 -57.07113281 35.05085938 -57.0625 34.25 C-57.05798828 33.45722656 -57.05347656 32.66445312 -57.04882812 31.84765625 C-57.03708565 29.89840492 -57.01915146 27.94919262 -57 26 C-56.34 26 -55.68 26 -55 26 C-54.67 23.36 -54.34 20.72 -54 18 C-53.34 18 -52.68 18 -52 18 C-51.814375 16.7934375 -51.814375 16.7934375 -51.625 15.5625 C-51.41875 14.716875 -51.2125 13.87125 -51 13 C-50.34 12.67 -49.68 12.34 -49 12 C-48.3503125 10.7934375 -48.3503125 10.7934375 -47.6875 9.5625 C-45.72713571 6.58565053 -44.35337589 5.99694959 -41 5 C-41 4.34 -41 3.68 -41 3 C-39.35 2.67 -37.7 2.34 -36 2 C-36 1.34 -36 0.68 -36 0 C-23.83979627 -2.77947514 -12.16020373 -2.77947514 0 0 Z " fill="#0D0D0D" transform="translate(579,45)"/>
<path d="M0 0 C2.8125 2.4375 2.8125 2.4375 5 5 C6.3921875 6.299375 6.3921875 6.299375 7.8125 7.625 C10 10 10 10 10 13 C10.66 13 11.32 13 12 13 C13.35439668 15.70879335 13.06501451 18.00933268 13 21 C13.66 21 14.32 21 15 21 C16.52868847 33.33869976 17.22757174 45.42466257 12 57 C11.34 57 10.68 57 10 57 C9.91621094 57.74636719 9.83242188 58.49273437 9.74609375 59.26171875 C8.84361495 62.5739577 7.67725729 63.64220417 5.0625 65.8125 C4.35222656 66.41707031 3.64195312 67.02164063 2.91015625 67.64453125 C1 69 1 69 -1 69 C-1 69.66 -1 70.32 -1 71 C-1.99 71 -2.98 71 -4 71 C-4 71.66 -4 72.32 -4 73 C-12.65614348 75.40543015 -24.64082274 75.77938485 -32.8125 71.875 C-36.80263089 69.42222252 -39.98210557 66.57382235 -43 63 C-43 62.34 -43 61.68 -43 61 C-43.66 61 -44.32 61 -45 61 C-48.2764845 55.22861499 -49.59125947 51.15051343 -49.4609375 44.5546875 C-49.46002106 43.7811795 -49.45910461 43.00767151 -49.4581604 42.21072388 C-49.45216208 40.58882443 -49.4365308 38.96693408 -49.41162109 37.34521484 C-49.37498897 34.87425596 -49.37060333 32.40479671 -49.37109375 29.93359375 C-49.36126464 28.34894549 -49.34960853 26.76430728 -49.3359375 25.1796875 C-49.33371185 24.44829559 -49.33148621 23.71690369 -49.32919312 22.96334839 C-49.24933229 18.61676389 -48.59101191 15.04458241 -47 11 C-46.34 11 -45.68 11 -45 11 C-44.93941406 10.42378906 -44.87882813 9.84757813 -44.81640625 9.25390625 C-42.85540807 3.84005002 -35.7696224 0.65521812 -31.01953125 -2.18359375 C-21.60085007 -6.529078 -8.75922507 -5.23852684 0 0 Z " fill="#FAFAFA" transform="translate(759,226)"/>
<path d="M0 0 C1.19418297 -0.00855011 1.19418297 -0.00855011 2.41249084 -0.01727295 C4.10644191 -0.02674497 5.80041158 -0.03326562 7.49438477 -0.03710938 C10.05584398 -0.04671815 12.61646709 -0.07767799 15.17773438 -0.109375 C24.41467785 -0.16861734 32.71655258 -0.01867684 41.16015625 4.203125 C41.16015625 4.863125 41.16015625 5.523125 41.16015625 6.203125 C41.75828125 6.47125 42.35640625 6.739375 42.97265625 7.015625 C45.30647229 8.28255371 46.57205457 9.07362502 48.16015625 11.203125 C48.453125 14.33984375 48.453125 14.33984375 48.34765625 17.890625 C48.30705078 19.65986328 48.30705078 19.65986328 48.265625 21.46484375 C48.23082031 22.36847656 48.19601562 23.27210937 48.16015625 24.203125 C47.50015625 24.203125 46.84015625 24.203125 46.16015625 24.203125 C45.66515625 26.678125 45.66515625 26.678125 45.16015625 29.203125 C44.50015625 29.203125 43.84015625 29.203125 43.16015625 29.203125 C42.50015625 30.523125 41.84015625 31.843125 41.16015625 33.203125 C39.84015625 33.203125 38.52015625 33.203125 37.16015625 33.203125 C37.16015625 33.863125 37.16015625 34.523125 37.16015625 35.203125 C38.48015625 35.203125 39.80015625 35.203125 41.16015625 35.203125 C41.16015625 35.863125 41.16015625 36.523125 41.16015625 37.203125 C41.75828125 37.30625 42.35640625 37.409375 42.97265625 37.515625 C46.84283466 38.73196679 47.91092391 40.75081445 49.84765625 44.265625 C52.03750137 49.64278396 51.98051068 55.74206172 50.16015625 61.203125 C49.50015625 61.203125 48.84015625 61.203125 48.16015625 61.203125 C47.89203125 61.80125 47.62390625 62.399375 47.34765625 63.015625 C45.40989211 66.58519052 43.01977584 68.48247292 39.41015625 70.265625 C38.7759375 70.58660156 38.14171875 70.90757813 37.48828125 71.23828125 C31.30515451 73.80075156 26.00944888 74.48729173 19.3828125 74.3984375 C18.66250854 74.39642334 17.94220459 74.39440918 17.20007324 74.39233398 C14.54077266 74.38196634 11.88185381 74.35411961 9.22265625 74.328125 C6.00058066 74.30419033 2.77848862 74.28280668 -0.44360352 74.26123047 C-2.04435758 74.25019279 -3.64511138 74.23911797 -5.24586487 74.22799683 C-7.02488441 74.21568527 -7.02488441 74.21568527 -8.83984375 74.203125 C-8.86296859 64.70238175 -8.88075955 55.20164812 -8.89165592 45.70088291 C-8.89688444 41.28975496 -8.90398152 36.8786462 -8.9152832 32.4675293 C-8.92611319 28.21411385 -8.93212082 23.96071691 -8.93472099 19.70728874 C-8.93657504 18.08090867 -8.94019527 16.45452966 -8.94557381 14.82815742 C-8.95278573 12.55802307 -8.95383463 10.28796615 -8.95336914 8.01782227 C-8.95558975 6.72320572 -8.95781036 5.42858917 -8.96009827 4.09474182 C-8.72547385 -1.54699143 -4.59327051 0.02525995 0 0 Z " fill="#080808" transform="translate(231.83984375,42.796875)"/>
<path d="M0 0 C0 0.66 0 1.32 0 2 C2.31 2.33 4.62 2.66 7 3 C7 3.66 7 4.32 7 5 C9.475 5.495 9.475 5.495 12 6 C12 6.66 12 7.32 12 8 C12.99 8.33 13.98 8.66 15 9 C15 9.99 15 10.98 15 12 C14.28972656 12.33773437 13.57945312 12.67546875 12.84765625 13.0234375 C11.92855469 13.46945313 11.00945312 13.91546875 10.0625 14.375 C9.14597656 14.81585938 8.22945313 15.25671875 7.28515625 15.7109375 C4.87096198 16.79199162 4.87096198 16.79199162 4 19 C1.07120629 18.37240135 -1.36095629 17.41377341 -4 16 C-4 15.34 -4 14.68 -4 14 C-15.38055574 13.42896693 -15.38055574 13.42896693 -26 17 C-26.99 17 -27.98 17 -29 17 C-29 17.66 -29 18.32 -29 19 C-30.31200404 20.35432675 -31.64631404 21.68733482 -33 23 C-33.33 23.66 -33.66 24.32 -34 25 C-34.66 25 -35.32 25 -36 25 C-36.08152344 27.54232342 -36.14073716 30.08199202 -36.1875 32.625 C-36.21263672 33.33785156 -36.23777344 34.05070312 -36.26367188 34.78515625 C-36.37005418 42.51560351 -33.24616179 47.37911237 -28 53 C-22.09542347 57.17640779 -16.08807953 57.76683901 -9 57 C-4.48771178 55.60202113 0.08876212 53.86716673 3 50 C3.33 48.02 3.66 46.04 4 44 C-0.62 44 -5.24 44 -10 44 C-10 39.71 -10 35.42 -10 31 C-0.43 31 9.14 31 19 31 C19.0825 35.2075 19.165 39.415 19.25 43.75 C19.28641602 45.0709668 19.32283203 46.39193359 19.36035156 47.75292969 C19.3703418 48.79868164 19.38033203 49.84443359 19.390625 50.921875 C19.4220459 52.52434082 19.4220459 52.52434082 19.45410156 54.15917969 C18.89156706 57.67834717 17.7863764 58.85095377 15 61 C14.34 61 13.68 61 13 61 C12.77570313 61.59425781 12.55140625 62.18851563 12.3203125 62.80078125 C9.48102365 67.53012925 3.02685778 70.14852458 -2.15234375 71.60546875 C-4.0625 71.875 -4.0625 71.875 -8 72 C-8.80308594 72.02578125 -9.60617187 72.0515625 -10.43359375 72.078125 C-17.95290922 72.2154641 -24.89093648 71.66589882 -32 69 C-32 68.34 -32 67.68 -32 67 C-33.19625 66.835 -34.3925 66.67 -35.625 66.5 C-40.37912426 65.34953577 -42.2651789 62.78654967 -44.96875 58.875 C-46 57 -46 57 -46 55 C-46.99 54.67 -47.98 54.34 -49 54 C-53.45172369 44.89503427 -53.32254765 31.70225551 -51 22 C-50.34 22 -49.68 22 -49 22 C-48.896875 20.9275 -48.79375 19.855 -48.6875 18.75 C-48.02797801 15.15260731 -47.54223809 13.54223809 -45 11 C-44.34 11 -43.68 11 -43 11 C-42.67 10.01 -42.34 9.02 -42 8 C-37.66666667 5 -37.66666667 5 -35 5 C-35 4.34 -35 3.68 -35 3 C-34.01 3 -33.02 3 -32 3 C-32 2.34 -32 1.68 -32 1 C-21.44764575 -1.72318819 -10.73030602 -1.71684896 0 0 Z " fill="#0A0A0A" transform="translate(375,44)"/>
<path d="M0 0 C0.74886475 0.00523682 1.49772949 0.01047363 2.26928711 0.01586914 C3.07817383 0.0190918 3.88706055 0.02231445 4.72045898 0.02563477 C5.5705957 0.03401367 6.42073242 0.04239258 7.29663086 0.05102539 C8.15063477 0.05553711 9.00463867 0.06004883 9.88452148 0.06469727 C12.00108749 0.07652166 14.11761771 0.0944577 16.23413086 0.11352539 C16.53706055 0.8521582 16.83999023 1.59079102 17.15209961 2.35180664 C19.72801393 8.58948225 22.40927115 14.74512704 25.31616211 20.83618164 C26.23413086 23.11352539 26.23413086 23.11352539 26.23413086 26.11352539 C26.89413086 26.11352539 27.55413086 26.11352539 28.23413086 26.11352539 C29.05103263 28.34116528 29.86274958 30.57047399 30.67163086 32.80102539 C30.90172852 33.42686523 31.13182617 34.05270508 31.36889648 34.69750977 C32.61466753 38.14594847 33.63217535 41.49487329 34.23413086 45.11352539 C35.22413086 45.11352539 36.21413086 45.11352539 37.23413086 45.11352539 C37.43329102 44.27047852 37.43329102 44.27047852 37.63647461 43.41040039 C38.25850197 41.01986386 39.00528127 38.70316764 39.79663086 36.36352539 C40.06604492 35.56430664 40.33545898 34.76508789 40.61303711 33.94165039 C40.81799805 33.33836914 41.02295898 32.73508789 41.23413086 32.11352539 C41.89413086 32.11352539 42.55413086 32.11352539 43.23413086 32.11352539 C43.23413086 31.12352539 43.23413086 30.13352539 43.23413086 29.11352539 C43.89413086 29.11352539 44.55413086 29.11352539 45.23413086 29.11352539 C45.23413086 28.12352539 45.23413086 27.13352539 45.23413086 26.11352539 C45.89413086 26.11352539 46.55413086 26.11352539 47.23413086 26.11352539 C47.29600586 25.32977539 47.35788086 24.54602539 47.42163086 23.73852539 C48.36652552 19.5228415 50.0692142 16.18434151 52.07788086 12.38305664 C53.33913924 10.04664338 53.33913924 10.04664338 54.23413086 7.11352539 C54.89413086 7.11352539 55.55413086 7.11352539 56.23413086 7.11352539 C56.89413086 5.13352539 57.55413086 3.15352539 58.23413086 1.11352539 C62.19413086 1.11352539 66.15413086 1.11352539 70.23413086 1.11352539 C69.90413086 3.42352539 69.57413086 5.73352539 69.23413086 8.11352539 C68.57413086 8.11352539 67.91413086 8.11352539 67.23413086 8.11352539 C67.23413086 9.43352539 67.23413086 10.75352539 67.23413086 12.11352539 C66.57413086 12.11352539 65.91413086 12.11352539 65.23413086 12.11352539 C64.90413086 14.42352539 64.57413086 16.73352539 64.23413086 19.11352539 C63.57413086 19.11352539 62.91413086 19.11352539 62.23413086 19.11352539 C62.10135742 19.67555664 61.96858398 20.23758789 61.83178711 20.81665039 C61.20975975 23.20718692 60.46298045 25.52388314 59.67163086 27.86352539 C59.4022168 28.66274414 59.13280273 29.46196289 58.85522461 30.28540039 C58.65026367 30.88868164 58.44530273 31.49196289 58.23413086 32.11352539 C57.57413086 32.11352539 56.91413086 32.11352539 56.23413086 32.11352539 C56.13100586 32.62915039 56.02788086 33.14477539 55.92163086 33.67602539 C54.7049392 37.98975037 52.92622665 41.96890542 50.60913086 45.80102539 C49.32512046 47.96049743 48.68807477 49.66222825 48.23413086 52.11352539 C47.57413086 52.11352539 46.91413086 52.11352539 46.23413086 52.11352539 C46.11038086 52.6768457 45.98663086 53.24016602 45.85913086 53.82055664 C45.18928072 56.27806934 44.27816224 58.47882323 43.23413086 60.80102539 C42.88350586 61.58864258 42.53288086 62.37625977 42.17163086 63.18774414 C41.23413086 65.11352539 41.23413086 65.11352539 40.23413086 66.11352539 C38.7576421 66.21176535 37.27637669 66.24326058 35.79663086 66.23852539 C34.99354492 66.24110352 34.19045898 66.24368164 33.36303711 66.24633789 C31.23413086 66.11352539 31.23413086 66.11352539 29.23413086 65.11352539 C29.23413086 64.12352539 29.23413086 63.13352539 29.23413086 62.11352539 C28.57413086 62.11352539 27.91413086 62.11352539 27.23413086 62.11352539 C26.90413086 59.47352539 26.57413086 56.83352539 26.23413086 54.11352539 C25.57413086 54.11352539 24.91413086 54.11352539 24.23413086 54.11352539 C23.93176514 53.27374146 23.93176514 53.27374146 23.62329102 52.41699219 C22.70605606 49.87681509 21.7826672 47.33891791 20.85913086 44.80102539 C20.54202148 43.91995117 20.22491211 43.03887695 19.89819336 42.13110352 C19.43413086 40.85976562 19.43413086 40.85976562 18.96069336 39.56274414 C18.67790527 38.7824585 18.39511719 38.00217285 18.10375977 37.19824219 C17.21160843 34.87216232 17.21160843 34.87216232 15.23413086 32.11352539 C14.57413086 30.13352539 13.91413086 28.15352539 13.23413086 26.11352539 C12.90413086 41.62352539 12.57413086 57.13352539 12.23413086 73.11352539 C7.28413086 73.11352539 2.33413086 73.11352539 -2.76586914 73.11352539 C-2.78842157 63.74316286 -2.80678504 54.37281821 -2.81768131 45.00243473 C-2.82290979 40.6518408 -2.83000679 36.30126632 -2.84130859 31.95068359 C-2.85213873 27.75562281 -2.85814624 23.5605808 -2.86074638 19.36550713 C-2.8626004 17.76145571 -2.86622058 16.15740537 -2.8715992 14.55336189 C-2.87881133 12.31436024 -2.87986001 10.0754371 -2.87939453 7.83642578 C-2.88161514 6.55957413 -2.88383575 5.28272247 -2.88612366 3.96717834 C-2.72633063 0.17527219 -2.72633063 0.17527219 0 0 Z " fill="#090909" transform="translate(437.765869140625,41.886474609375)"/>
<path d="M0 0 C17.49 0 34.98 0 53 0 C53 3.96 53 7.92 53 12 C52 13 52 13 48.58178711 13.11352539 C47.06363013 13.11327433 45.54546743 13.10771425 44.02734375 13.09765625 C43.32065552 13.09664917 42.61396729 13.09564209 41.88586426 13.09460449 C39.23639309 13.08935745 36.58694498 13.07539629 33.9375 13.0625 C28.018125 13.041875 22.09875 13.02125 16 13 C16 27.85 16 42.7 16 58 C28.54 58 41.08 58 54 58 C54 62.95 54 67.9 54 73 C36.18 73 18.36 73 0 73 C0 48.91 0 24.82 0 0 Z " fill="#131313" transform="translate(689,44)"/>
<path d="M0 0 C4.95 0 9.9 0 15 0 C19.20506735 4.5655017 21.7861189 7.95882429 23 14 C23.66 14 24.32 14 25 14 C28.4677042 18.40492155 31.15211093 23.01578023 33.8125 27.9375 C35.29480278 30.51202588 37.12445428 32.70094395 39 35 C39.95979633 36.7276334 40.9192309 38.45548289 41.87109375 40.1875 C43.07109971 42.11415317 44.41546685 43.69336747 45.9375 45.375 C48.82497748 48.61159314 50.81454376 52.02551827 52.83203125 55.8515625 C53.89529623 57.80740109 55.04311809 59.61137163 56.3125 61.4375 C58 64 58 64 58 66 C58.66 66 59.32 66 60 66 C60.33 67.65 60.66 69.3 61 71 C55.72 71 50.44 71 45 71 C44.67 69.68 44.34 68.36 44 67 C43.34 67 42.68 67 42 67 C41.443125 66.01 40.88625 65.02 40.3125 64 C38.31468807 60.48413743 36.16200282 57.08572119 33.953125 53.69921875 C33 52 33 52 33 50 C32.34 50 31.68 50 31 50 C31 49.34 31 48.68 31 48 C30.34 48 29.68 48 29 48 C28.68546875 47.32453125 28.3709375 46.6490625 28.046875 45.953125 C25.48793573 40.45151222 25.48793573 40.45151222 21.75 35.75 C19.36717546 33.36717546 19.29818964 31.28008599 19 28 C17.68 27.67 16.36 27.34 15 27 C15 41.52 15 56.04 15 71 C10.05 71 5.1 71 0 71 C0 47.57 0 24.14 0 0 Z " fill="#080808" transform="translate(612,44)"/>
<path d="M0 0 C0.77734375 2.140625 0.77734375 2.140625 1 4 C1.99 4 2.98 4 4 4 C4 4.66 4 5.32 4 6 C4.66 6 5.32 6 6 6 C6 6.99 6 7.98 6 9 C6.66 9 7.32 9 8 9 C9.97100095 16.63762867 9.57012101 23.00851302 6 30 C5.34 30 4.68 30 4 30 C3.7525 30.61875 3.505 31.2375 3.25 31.875 C1.79371361 34.35068687 0.62187494 34.95125002 -2 36 C-2 36.66 -2 37.32 -2 38 C-7.6474225 41.76494833 -13.36646917 41.78451744 -20 41 C-25.41521361 39.3460924 -29.34907742 36.33547057 -33 32 C-33 31.34 -33 30.68 -33 30 C-33.66 30 -34.32 30 -35 30 C-37.64784597 23.19125322 -39.39657011 17.18971032 -37 10 C-36.34 10 -35.68 10 -35 10 C-34.938125 9.278125 -34.87625 8.55625 -34.8125 7.8125 C-33.48184083 3.20637209 -30.29977457 0.88765093 -26.4375 -1.75 C-18.23803333 -5.9548547 -7.66774897 -5.01889023 0 0 Z " fill="#F8F8F8" transform="translate(576,61)"/>
<path d="M0 0 C5.28 0 10.56 0 16 0 C17 1 17 1 17.12025452 3.85365295 C17.1169236 5.76893044 17.1169236 5.76893044 17.11352539 7.72290039 C17.11367142 8.4253035 17.11381744 9.1277066 17.1139679 9.85139465 C17.11326872 12.18351278 17.10547617 14.515552 17.09765625 16.84765625 C17.09579208 18.46048438 17.09436818 20.07331307 17.09336853 21.68614197 C17.08954323 25.93915357 17.07971285 30.19213124 17.06866455 34.44512939 C17.05845069 38.7817743 17.05387096 43.11842467 17.04882812 47.45507812 C17.03809059 55.97006942 17.0204937 64.48502659 17 73 C11.39 73 5.78 73 0 73 C0 48.91 0 24.82 0 0 Z " fill="#010101" transform="translate(294,42)"/>
<path d="M0 0 C5.28 0 10.56 0 16 0 C16.9716149 1.94322979 17.94267514 3.88674005 18.91015625 5.83203125 C19.83427675 7.67033548 20.78889224 9.49326032 21.75 11.3125 C23 14 23 14 23 17 C23.66 17 24.32 17 25 17 C28 22.625 28 22.625 28 26 C28.66 26 29.32 26 30 26 C30.30292969 26.76183594 30.60585938 27.52367188 30.91796875 28.30859375 C31.33691406 29.34113281 31.75585938 30.37367187 32.1875 31.4375 C32.59355469 32.44683594 32.99960937 33.45617187 33.41796875 34.49609375 C34.80997555 37.81918354 34.80997555 37.81918354 36.28051758 39.95922852 C40.56718749 46.6102232 40.60391233 52.29299882 40.3125 60.0625 C40.28994141 61.21427734 40.26738281 62.36605469 40.24414062 63.55273438 C40.18571065 66.3690593 40.09604866 69.18470698 40 72 C35.05 72 30.1 72 25 72 C24.95101562 70.30230469 24.90203125 68.60460937 24.8515625 66.85546875 C24.77653556 64.63279577 24.7009877 62.41014034 24.625 60.1875 C24.5940625 59.06794922 24.563125 57.94839844 24.53125 56.79492188 C24.49257813 55.72177734 24.45390625 54.64863281 24.4140625 53.54296875 C24.36693115 52.0583313 24.36693115 52.0583313 24.31884766 50.54370117 C24.16226567 47.75924906 24.16226567 47.75924906 22 45 C22 44.01 22 43.02 22 42 C21.34 42 20.68 42 20 42 C19.01161567 39.9627797 18.03467748 37.92000393 17.0625 35.875 C16.51722656 34.73804688 15.97195313 33.60109375 15.41015625 32.4296875 C14 29 14 29 13.55859375 25.6953125 C13.37425781 24.80585937 13.18992187 23.91640625 13 23 C11.10010045 21.8755265 11.10010045 21.8755265 9 21 C7.62109375 18.86328125 7.62109375 18.86328125 6.4375 16.3125 C6.01855469 15.41917969 5.59960938 14.52585937 5.16796875 13.60546875 C4.78253906 12.74566406 4.39710938 11.88585937 4 11 C3.68675781 10.31550781 3.37351562 9.63101563 3.05078125 8.92578125 C1.72707023 5.94904573 0.79408482 3.17633927 0 0 Z " fill="#0D0D0D" transform="translate(749,43)"/>
<path d="M0 0 C4.95 0 9.9 0 15 0 C15 18.48 15 36.96 15 56 C14.01 56 13.02 56 12 56 C12 55.34 12 54.68 12 54 C11.0409375 53.8453125 11.0409375 53.8453125 10.0625 53.6875 C9.0415625 53.3471875 9.0415625 53.3471875 8 53 C7.505 51.515 7.505 51.515 7 50 C6.484375 49.505 5.96875 49.01 5.4375 48.5 C4 47 4 47 4 44 C3.34 44 2.68 44 2 44 C-0.583842 38.79010471 -1.42786432 34.57241883 -1.328125 28.73046875 C-1.32625183 27.96825516 -1.32437866 27.20604156 -1.32244873 26.42073059 C-1.31576989 24.82316661 -1.30193935 23.2256178 -1.28125 21.62817383 C-1.24986674 19.17709239 -1.24025039 16.72665387 -1.234375 14.27539062 C-1.22521277 12.71874211 -1.2148395 11.16210015 -1.203125 9.60546875 C-1.19887512 8.87216843 -1.19462524 8.1388681 -1.19024658 7.38334656 C-1.11728424 2.23456848 -1.11728424 2.23456848 0 0 Z " fill="#1D1D1D" transform="translate(660,42)"/>
<path d="M0 0 C0 16.5 0 33 0 50 C-4.29 50 -8.58 50 -13 50 C-14.92518277 48.07481723 -14.13063271 44.55163317 -14.1328125 42.0078125 C-14.13376923 41.30606903 -14.13472595 40.60432556 -14.13571167 39.88131714 C-14.1363935 38.39337067 -14.134539 36.90542125 -14.13037109 35.41748047 C-14.12503874 33.1415332 -14.13030765 30.86578471 -14.13671875 28.58984375 C-14.13605766 27.1458329 -14.13477585 25.70182217 -14.1328125 24.2578125 C-14.13168457 22.9392627 -14.13055664 21.62071289 -14.12939453 20.26220703 C-14 17 -14 17 -13 14 C-12.34 14 -11.68 14 -11 14 C-11 13.01 -11 12.02 -11 11 C-10.34 11 -9.68 11 -9 11 C-8.773125 10.113125 -8.54625 9.22625 -8.3125 8.3125 C-6.83745528 4.58976808 -4.48302954 0 0 0 Z " fill="#0F0F0F" transform="translate(511,65)"/>
<path d="M0 0 C4.95 0 9.9 0 15 0 C15 0.99 15 1.98 15 3 C14.34 3 13.68 3 13 3 C12.9071875 4.2065625 12.9071875 4.2065625 12.8125 5.4375 C11.89422267 9.4637929 10.27375985 12.34289792 8.15625 15.8515625 C7.04362635 17.91893752 6.45630532 19.70810284 6 22 C5.34 22 4.68 22 4 22 C4 22.99 4 23.98 4 25 C3.34 25 2.68 25 2 25 C1.67 26.98 1.34 28.96 1 31 C0.34 31 -0.32 31 -1 31 C-1.495 33.475 -1.495 33.475 -2 36 C-5.80014965 35.45712148 -7.53896313 33.88535357 -10 31 C-11.19211438 27.42365687 -11.25926574 24.75935317 -11 21 C-9.625 18.4375 -9.625 18.4375 -8 16 C-7.28856912 14.01548229 -6.61008664 12.01797888 -6 10 C-5.01 10 -4.02 10 -3 10 C-2.67 8.02 -2.34 6.04 -2 4 C-1.34 4 -0.68 4 0 4 C0 2.68 0 1.36 0 0 Z " fill="#080808" transform="translate(798,44)"/>
<path d="M0 0 C3.39716777 -0.13516583 6.78894608 -0.23419231 10.1875 -0.3125 C11.14720703 -0.35439453 12.10691406 -0.39628906 13.09570312 -0.43945312 C17.8197335 -0.52118375 20.21934465 -0.55650679 24.15625 2.25 C26.84685163 6.26310074 26.39908378 8.29081141 26 13 C25.360625 13.268125 24.72125 13.53625 24.0625 13.8125 C21.66868314 14.88667752 21.66868314 14.88667752 21 18 C14.07 18 7.14 18 0 18 C0 12.06 0 6.12 0 0 Z " fill="#F4F4F4" transform="translate(239,85)"/>
<path d="M0 0 C13.2 0 26.4 0 40 0 C40.33 24.75 40.66 49.5 41 75 C41.66 74.67 42.32 74.34 43 74 C42.34 75.32 41.68 76.64 41 78 C40.34 78 39.68 78 39 78 C39 52.59 39 27.18 39 1 C26.46 1 13.92 1 1 1 C1 64.69 1 128.38 1 194 C13.54 194 26.08 194 39 194 C39 187.07 39 180.14 39 173 C39.99 173.33 40.98 173.66 42 174 C41.34 174 40.68 174 40 174 C40.16371094 174.99128906 40.32742188 175.98257813 40.49609375 177.00390625 C41.06604226 180.99354579 41.09817505 184.90621941 41.0625 188.9375 C41.05798828 189.62134766 41.05347656 190.30519531 41.04882812 191.00976562 C41.0371956 192.67321604 41.01926694 194.3366205 41 196 C35.32169922 196.02464705 29.64342931 196.04283462 23.96508789 196.05493164 C22.03181415 196.05997256 20.09854424 196.06680519 18.1652832 196.07543945 C15.39273128 196.08751565 12.62022959 196.09323057 9.84765625 196.09765625 C8.54297142 196.10539818 8.54297142 196.10539818 7.21192932 196.11329651 C5.14094186 196.11349185 3.07005676 196.06208168 1 196 C-0.72495761 194.27504239 -0.12236029 192.06681089 -0.12908131 189.76716131 C-0.12616847 189.01133923 -0.12325563 188.25551716 -0.12025452 187.47679138 C-0.12110894 186.67964425 -0.12196337 185.88249711 -0.12284368 185.061194 C-0.12450092 182.36946835 -0.11897316 179.67780397 -0.11352539 176.98608398 C-0.11324355 175.06477866 -0.1134012 173.14347323 -0.1139679 171.22216797 C-0.11425597 165.98891366 -0.10835759 160.75568205 -0.10139394 155.52243304 C-0.0951621 150.0598021 -0.09455674 144.59717069 -0.09336853 139.13453674 C-0.09025471 128.78247776 -0.08204064 118.43042927 -0.07201904 108.07837492 C-0.06085947 96.29623148 -0.05534785 84.51408755 -0.05032361 72.73194015 C-0.03985807 48.48795293 -0.02151196 24.24398011 0 0 Z " fill="#5A5A5A" transform="translate(670,137)"/>
<path d="M0 0 C2.8875 -0.020625 5.775 -0.04125 8.75 -0.0625 C9.65331055 -0.071604 10.55662109 -0.08070801 11.48730469 -0.09008789 C12.56866699 -0.09383423 12.56866699 -0.09383423 13.671875 -0.09765625 C14.4050293 -0.10289307 15.13818359 -0.10812988 15.89355469 -0.11352539 C18.09503148 0.00512165 19.91898782 0.26580082 22 1 C25.29472583 5.54444942 25.13576733 8.95403223 24.32421875 14.2421875 C24.21722656 14.82226562 24.11023438 15.40234375 24 16 C23.01 16 22.02 16 21 16 C21 16.66 21 17.32 21 18 C14.07 18 7.14 18 0 18 C0 12.06 0 6.12 0 0 Z " fill="#E7E7E7" transform="translate(239,55)"/>
<path d="M0 0 C5.28 0 10.56 0 16 0 C17 1 17 1 17.12025452 3.85365295 C17.1169236 5.76893044 17.1169236 5.76893044 17.11352539 7.72290039 C17.11367142 8.4253035 17.11381744 9.1277066 17.1139679 9.85139465 C17.11326872 12.18351278 17.10547617 14.515552 17.09765625 16.84765625 C17.09579208 18.46048438 17.09436818 20.07331307 17.09336853 21.68614197 C17.08954323 25.93915357 17.07971285 30.19213124 17.06866455 34.44512939 C17.05845069 38.7817743 17.05387096 43.11842467 17.04882812 47.45507812 C17.03809059 55.97006942 17.0204937 64.48502659 17 73 C11.39 73 5.78 73 0 73 C0 48.91 0 24.82 0 0 Z M2 3 C2 25.77 2 48.54 2 72 C6.29 72 10.58 72 15 72 C15 49.23 15 26.46 15 3 C10.71 3 6.42 3 2 3 Z " fill="#535353" transform="translate(294,42)"/>
<path d="M0 0 C0.78848328 0.00202423 1.57696655 0.00404846 2.38934326 0.00613403 C3.19732361 0.00517731 4.00530396 0.00422058 4.83776855 0.00323486 C6.55271482 0.00255277 8.26766364 0.00440907 9.98260498 0.00857544 C12.59871297 0.01389568 15.21464709 0.00864585 17.83074951 0.00222778 C19.49611447 0.0028891 21.16147933 0.00417138 22.82684326 0.00613403 C23.60722961 0.0041098 24.38761597 0.00208557 25.19165039 0 C29.04293236 0.01646836 32.63018216 0.20259759 36.37371826 1.13894653 C36.37371826 1.46894653 36.37371826 1.79894653 36.37371826 2.13894653 C22.84371826 2.13894653 9.31371826 2.13894653 -4.62628174 2.13894653 C-4.29628174 24.57894653 -3.96628174 47.01894653 -3.62628174 70.13894653 C16.66871826 70.63394653 16.66871826 70.63394653 37.37371826 71.13894653 C37.37371826 71.46894653 37.37371826 71.79894653 37.37371826 72.13894653 C31.95838727 73.95137347 27.28490913 74.41053459 21.59637451 74.33425903 C20.87607056 74.33224487 20.1557666 74.33023071 19.41363525 74.32815552 C16.75433467 74.31778787 14.09541582 74.28994115 11.43621826 74.26394653 C8.21414267 74.24001187 4.99205063 74.21862821 1.7699585 74.197052 C0.16920443 74.18601432 -1.43154937 74.1749395 -3.03230286 74.16381836 C-4.8113224 74.15150681 -4.8113224 74.15150681 -6.62628174 74.13894653 C-6.64940658 64.63820328 -6.66719754 55.13746965 -6.67809391 45.63670444 C-6.68332243 41.22557649 -6.69041951 36.81446773 -6.70172119 32.40335083 C-6.71255118 28.14993538 -6.71855881 23.89653844 -6.72115898 19.64311028 C-6.72301303 18.0167302 -6.72663326 16.39035119 -6.7320118 14.76397896 C-6.73922372 12.4938446 -6.74027262 10.22378768 -6.73980713 7.9536438 C-6.74202774 6.65902725 -6.74424835 5.36441071 -6.74653625 4.03056335 C-6.53789993 -0.98626537 -4.49449609 0.01955324 0 0 Z " fill="#585858" transform="translate(229.62628173828125,42.861053466796875)"/>
<path d="M0 0 C3.31248187 -0.02888146 6.62493167 -0.04675799 9.9375 -0.0625 C10.88302734 -0.07087891 11.82855469 -0.07925781 12.80273438 -0.08789062 C14.15141602 -0.09272461 14.15141602 -0.09272461 15.52734375 -0.09765625 C16.77632446 -0.10551147 16.77632446 -0.10551147 18.05053711 -0.11352539 C20 0 20 0 21 1 C21.14355117 5.00220653 21.04216403 8.99441683 21 13 C13.74 13 6.48 13 -1 13 C-1 4 -1 4 0 0 Z " fill="#131313" transform="translate(717,73)"/>
<path d="M0 0 C0.74886475 0.00523682 1.49772949 0.01047363 2.26928711 0.01586914 C3.07817383 0.0190918 3.88706055 0.02231445 4.72045898 0.02563477 C5.5705957 0.03401367 6.42073242 0.04239258 7.29663086 0.05102539 C8.15063477 0.05553711 9.00463867 0.06004883 9.88452148 0.06469727 C12.00108749 0.07652166 14.11761771 0.0944577 16.23413086 0.11352539 C17.29663086 1.92602539 17.29663086 1.92602539 18.23413086 4.11352539 C17.90413086 5.10352539 17.57413086 6.09352539 17.23413086 7.11352539 C16.90413086 5.46352539 16.57413086 3.81352539 16.23413086 2.11352539 C10.62413086 2.11352539 5.01413086 2.11352539 -0.76586914 2.11352539 C-0.76586914 25.21352539 -0.76586914 48.31352539 -0.76586914 72.11352539 C3.19413086 72.11352539 7.15413086 72.11352539 11.23413086 72.11352539 C11.23413086 55.94352539 11.23413086 39.77352539 11.23413086 23.11352539 C12.22413086 23.11352539 13.21413086 23.11352539 14.23413086 23.11352539 C14.56413086 24.43352539 14.89413086 25.75352539 15.23413086 27.11352539 C14.57413086 26.78352539 13.91413086 26.45352539 13.23413086 26.11352539 C12.90413086 41.62352539 12.57413086 57.13352539 12.23413086 73.11352539 C7.28413086 73.11352539 2.33413086 73.11352539 -2.76586914 73.11352539 C-2.78842157 63.74316286 -2.80678504 54.37281821 -2.81768131 45.00243473 C-2.82290979 40.6518408 -2.83000679 36.30126632 -2.84130859 31.95068359 C-2.85213873 27.75562281 -2.85814624 23.5605808 -2.86074638 19.36550713 C-2.8626004 17.76145571 -2.86622058 16.15740537 -2.8715992 14.55336189 C-2.87881133 12.31436024 -2.87986001 10.0754371 -2.87939453 7.83642578 C-2.88161514 6.55957413 -2.88383575 5.28272247 -2.88612366 3.96717834 C-2.72633063 0.17527219 -2.72633063 0.17527219 0 0 Z " fill="#696969" transform="translate(437.765869140625,41.886474609375)"/>
<path d="M0 0 C13.53 0 27.06 0 41 0 C42.46041228 2.92082455 42.11928796 5.48301369 42.11352539 8.74462891 C42.11367142 9.43742447 42.11381744 10.13022003 42.1139679 10.8440094 C42.11327018 13.13822541 42.10548442 15.43236064 42.09765625 17.7265625 C42.09579157 19.31554113 42.0943679 20.90452034 42.09336853 22.49349976 C42.08954731 26.67909325 42.07972039 30.86465213 42.06866455 35.05023193 C42.05844194 39.31994153 42.05386909 43.5896567 42.04882812 47.859375 C42.03809778 56.23959923 42.02102608 64.61979531 42 73 C43.98 72.01 43.98 72.01 46 71 C44.48601545 74.78496138 43.9855604 75.0072198 40 77 C40 51.92 40 26.84 40 1 C26.8 1 13.6 1 0 1 C0 0.67 0 0.34 0 0 Z " fill="#EBEBEB" transform="translate(670,136)"/>
<path d="M0 0 C0.99 0.495 0.99 0.495 2 1 C1.67 23.77 1.34 46.54 1 70 C4.96 70 8.92 70 13 70 C13 55.15 13 40.3 13 25 C14.32 25 15.64 25 17 25 C17 25.66 17 26.32 17 27 C16.34 27 15.68 27 15 27 C15 41.52 15 56.04 15 71 C10.05 71 5.1 71 0 71 C0 47.57 0 24.14 0 0 Z " fill="#303030" transform="translate(612,44)"/>
<path d="M0 0 C9.57 0 19.14 0 29 0 C29.061875 4.24875 29.12375 8.4975 29.1875 12.875 C29.21481201 14.2141748 29.24212402 15.55334961 29.27026367 16.93310547 C29.27775635 17.98385254 29.28524902 19.03459961 29.29296875 20.1171875 C29.3086792 21.19597168 29.32438965 22.27475586 29.34057617 23.38623047 C29.22818604 24.24877441 29.1157959 25.11131836 29 26 C28.01 26.66 27.02 27.32 26 28 C25.67 26.68 25.34 25.36 25 24 C25.99 24 26.98 24 28 24 C28 16.41 28 8.82 28 1 C19.09 1 10.18 1 1 1 C1 4.63 1 8.26 1 12 C5.29 12 9.58 12 14 12 C14 12.33 14 12.66 14 13 C9.38 13 4.76 13 0 13 C0 8.71 0 4.42 0 0 Z " fill="#424242" transform="translate(365,75)"/>
<path d="M0 0 C0.33 0 0.66 0 1 0 C1 23.1 1 46.2 1 70 C3.475 69.01 3.475 69.01 6 68 C4.48601545 71.78496138 3.9855604 72.0072198 0 74 C0 49.58 0 25.16 0 0 Z " fill="#C4C4C4" transform="translate(710,139)"/>
<path d="M0 0 C0.33 0.66 0.66 1.32 1 2 C0.71253906 2.82886719 0.42507812 3.65773437 0.12890625 4.51171875 C-1.30149114 8.93159719 -1.66114633 13.20216783 -2.0625 17.8125 C-2.216119 19.52770056 -2.37346531 21.2425728 -2.53515625 22.95703125 C-2.600979 23.70960205 -2.66680176 24.46217285 -2.73461914 25.23754883 C-3 27 -3 27 -4 28 C-4.57959986 36.6258097 -3.64998237 45.39934039 -3 54 C-3.66 53.67 -4.32 53.34 -5 53 C-6.51894278 46.03440723 -6.15354193 38.5301694 -6.125 31.4375 C-6.12886719 30.44169922 -6.13273438 29.44589844 -6.13671875 28.41992188 C-6.13542969 27.47568359 -6.13414062 26.53144531 -6.1328125 25.55859375 C-6.13168457 24.70579834 -6.13055664 23.85300293 -6.12939453 22.97436523 C-6 21 -6 21 -5 20 C-4.602507 17.65276034 -4.25631277 15.29671452 -3.9375 12.9375 C-3.67259766 11.00197266 -3.67259766 11.00197266 -3.40234375 9.02734375 C-3.26957031 8.02832031 -3.13679687 7.02929688 -3 6 C-2.34 6 -1.68 6 -1 6 C-1.020625 5.195625 -1.04125 4.39125 -1.0625 3.5625 C-1 1 -1 1 0 0 Z " fill="#626262" transform="translate(229,209)"/>
<path d="M0 0 C0.33 0 0.66 0 1 0 C1 8.25 1 16.5 1 25 C0.34 25 -0.32 25 -1 25 C-0.97679687 25.56847656 -0.95359375 26.13695312 -0.9296875 26.72265625 C-0.73944814 34.86218318 -3.1010991 41.4892113 -6 49 C-7.31538327 44.84228506 -6.34433068 42.1120703 -5 38 C-4.34 38 -3.68 38 -3 38 C-2.90912109 36.33710938 -2.90912109 36.33710938 -2.81640625 34.640625 C-2.73197049 33.1770718 -2.64732401 31.71353075 -2.5625 30.25 C-2.50352539 29.15558594 -2.50352539 29.15558594 -2.44335938 28.0390625 C-2.11280389 22.4450466 -2.11280389 22.4450466 -1.5 20.02734375 C-0.9687847 17.87343172 -0.79430078 15.88601561 -0.68359375 13.671875 C-0.64169922 12.87265625 -0.59980469 12.0734375 -0.55664062 11.25 C-0.51732422 10.425 -0.47800781 9.6 -0.4375 8.75 C-0.37272461 7.48929687 -0.37272461 7.48929687 -0.30664062 6.203125 C-0.20091457 4.13559329 -0.09998705 2.06781719 0 0 Z " fill="#5C5C5C" transform="translate(814,250)"/>
<path d="M0 0 C1.32 0.33 2.64 0.66 4 1 C3.67 1.99 3.34 2.98 3 4 C2.67 4 2.34 4 2 4 C1.67 17.2 1.34 30.4 1 44 C0.67 44 0.34 44 0 44 C0 29.48 0 14.96 0 0 Z " fill="#C2C2C2" transform="translate(627,71)"/>
<path d="M0 0 C-1.51483578 1.51483578 -3.13734417 1.50572972 -5.2265625 1.90234375 C-6.09410156 2.07056641 -6.96164062 2.23878906 -7.85546875 2.41210938 C-9.22638672 2.67217773 -9.22638672 2.67217773 -10.625 2.9375 C-16.50815928 4.0570882 -22.26948389 5.24944508 -28 7 C-28 6.34 -28 5.68 -28 5 C-17.62642369 1.55580866 -17.62642369 1.55580866 -12 2 C-12 1.34 -12 0.68 -12 0 C-3.42857143 -1.28571429 -3.42857143 -1.28571429 0 0 Z " fill="#595959" transform="translate(311,149)"/>
<path d="M0 0 C5.61 0 11.22 0 17 0 C16.67 1.98 16.34 3.96 16 6 C15.34 6 14.68 6 14 6 C13.67 6.66 13.34 7.32 13 8 C13 7.01 13 6.02 13 5 C13.66 5 14.32 5 15 5 C15 4.01 15 3.02 15 2 C10.05 2 5.1 2 0 2 C0 1.34 0 0.68 0 0 Z " fill="#9E9E9E" transform="translate(798,42)"/>
<path d="M0 0 C0.66 0 1.32 0 2 0 C2.33 1.65 2.66 3.3 3 5 C-2.94 5 -8.88 5 -15 5 C-15 4.34 -15 3.68 -15 3 C-9.72 3 -4.44 3 1 3 C0.67 2.01 0.34 1.02 0 0 Z " fill="#B6B6B6" transform="translate(672,112)"/>
<path d="M0 0 C0.33 0 0.66 0 1 0 C0.67 4.95 0.34 9.9 0 15 C-0.66 15 -1.32 15 -2 15 C-1.67 19.29 -1.34 23.58 -1 28 C-3 26 -3 26 -3.1953125 22.7421875 C-3.17210937 21.46601563 -3.14890625 20.18984375 -3.125 18.875 C-3.10695313 17.59367187 -3.08890625 16.31234375 -3.0703125 14.9921875 C-3.04710937 14.00476563 -3.02390625 13.01734375 -3 12 C-2.34 12 -1.68 12 -1 12 C-1.020625 10.7625 -1.04125 9.525 -1.0625 8.25 C-1.06766681 5.3359175 -0.93015558 2.79046673 0 0 Z " fill="#AFAFAF" transform="translate(267,222)"/>
<path d="M0 0 C1 3 1 3 0 6 C0.66 6 1.32 6 2 6 C1 8 1 8 -2 10 C-2.36498034 12.89608399 -2.36498034 12.89608399 -2.1875 16.125 C-2.14689453 17.76855469 -2.14689453 17.76855469 -2.10546875 19.4453125 C-2.07066406 20.28835937 -2.03585937 21.13140625 -2 22 C-4 21 -4 21 -5 18 C-5.38228878 12.8391015 -4.84275904 10.26413857 -2 6 C-1.28856912 4.01548229 -0.61008664 2.01797888 0 0 Z " fill="#3E3E3E" transform="translate(792,54)"/>
<path d="M0 0 C8.1362249 0.47284674 16.21062221 1.51073401 24 4 C24.33 4.66 24.66 5.32 25 6 C22.03 6 19.06 6 16 6 C16 5.34 16 4.68 16 4 C14.824375 3.814375 14.824375 3.814375 13.625 3.625 C9.0646674 2.83873576 4.53432907 1.92299584 0 1 C0 0.67 0 0.34 0 0 Z " fill="#606060" transform="translate(335,148)"/>
<path d="M0 0 C0.66 0 1.32 0 2 0 C2 6.6 2 13.2 2 20 C1.67 20 1.34 20 1 20 C0.67 15.05 0.34 10.1 0 5 C-1.98 5.99 -1.98 5.99 -4 7 C-2.79618552 4.50638429 -1.54571278 2.31856917 0 0 Z " fill="#CFCFCF" transform="translate(594,311)"/>
<path d="M0 0 C0.33 0 0.66 0 1 0 C1.08676908 4.12486838 1.14031295 8.24950384 1.1875 12.375 C1.22520508 14.1384375 1.22520508 14.1384375 1.26367188 15.9375 C1.27333984 17.05898437 1.28300781 18.18046875 1.29296875 19.3359375 C1.31653442 20.89127197 1.31653442 20.89127197 1.34057617 22.47802734 C1.22818604 23.31027832 1.1157959 24.1425293 1 25 C0.01 25.66 -0.98 26.32 -2 27 C-2.33 25.68 -2.66 24.36 -3 23 C-2.01 23 -1.02 23 0 23 C0 15.41 0 7.82 0 0 Z " fill="#303030" transform="translate(393,76)"/>
<path d="M0 0 C0.66 0 1.32 0 2 0 C3.78409802 3.06246747 4.22880021 5.22079273 4.125 8.75 C4.10695313 9.54921875 4.08890625 10.3484375 4.0703125 11.171875 C4.03550781 12.07679687 4.03550781 12.07679687 4 13 C2.02 13.66 0.04 14.32 -2 15 C-2 14.34 -2 13.68 -2 13 C-1.01 12.34 -0.02 11.68 1 11 C1.26518132 6.82339427 1.31886422 3.95659266 0 0 Z " fill="#5D5D5D" transform="translate(263,87)"/>
<path d="M0 0 C0.66 0.33 1.32 0.66 2 1 C-0.05803488 4.60156104 -2.24535883 7.88992126 -5 11 C-5.66 11 -6.32 11 -7 11 C-6.625 9.0625 -6.625 9.0625 -6 7 C-5.34 6.67 -4.68 6.34 -4 6 C-2.96986723 4.35178756 -1.96885372 2.68496298 -1 1 C-0.67 0.67 -0.34 0.34 0 0 Z " fill="#474747" transform="translate(534,51)"/>
<path d="M0 0 C0.66 0.33 1.32 0.66 2 1 C-3.0940919 7.86214442 -3.0940919 7.86214442 -6.875 8.4375 C-7.57625 8.293125 -8.2775 8.14875 -9 8 C-9 7.34 -9 6.68 -9 6 C-7.68 5.67 -6.36 5.34 -5 5 C-5 4.34 -5 3.68 -5 3 C-2.625 1.3125 -2.625 1.3125 0 0 Z " fill="#3D3D3D" transform="translate(263,165)"/>
<path d="M0 0 C1.32 0.33 2.64 0.66 4 1 C3.67 1.99 3.34 2.98 3 4 C2.67 4 2.34 4 2 4 C1.67 7.63 1.34 11.26 1 15 C0.67 15 0.34 15 0 15 C0 10.05 0 5.1 0 0 Z " fill="#B9B9B9" transform="translate(627,71)"/>
<path d="M0 0 C0 0.66 0 1.32 0 2 C-2.31 3.32 -4.62 4.64 -7 6 C-7.33 5.01 -7.66 4.02 -8 3 C-6.23110084 -0.53779831 -3.70375662 0 0 0 Z " fill="#2F2F2F" transform="translate(395,307)"/>
<path d="M0 0 C0.98120464 3.05263664 0.98120464 4.94736336 0 8 C-0.66 8 -1.32 8 -2 8 C-2 9.32 -2 10.64 -2 12 C-2.66 12 -3.32 12 -4 12 C-2 3.42857143 -2 3.42857143 0 0 Z " fill="#ADADAD" transform="translate(484,94)"/>
<path d="M0 0 C0.33 0 0.66 0 1 0 C1.33 1.98 1.66 3.96 2 6 C1.01 6.66 0.02 7.32 -1 8 C-1.33 8.99 -1.66 9.98 -2 11 C-2.66 10.67 -3.32 10.34 -4 10 C-3.34 7.69 -2.68 5.38 -2 3 C-1.34 3 -0.68 3 0 3 C0 2.01 0 1.02 0 0 Z " fill="#434343" transform="translate(481,71)"/>
<path d="M0 0 C5.52677733 -0.19392201 9.75614911 0.2520497 15 2 C15 2.33 15 2.66 15 3 C12.03 3 9.06 3 6 3 C6 2.34 6 1.68 6 1 C4.02 1 2.04 1 0 1 C0 0.67 0 0.34 0 0 Z " fill="#656565" transform="translate(293,331)"/>
<path d="M0 0 C0.66 0.33 1.32 0.66 2 1 C1.01 2.485 1.01 2.485 0 4 C0.33 4.66 0.66 5.32 1 6 C-1.31 5.34 -3.62 4.68 -6 4 C-3.94766315 1.7522025 -2.99332739 0.9977758 0 0 Z " fill="#414141" transform="translate(273,159)"/>
<path d="M0 0 C0.33 0.66 0.66 1.32 1 2 C0.01 2 -0.98 2 -2 2 C-1.67 3.65 -1.34 5.3 -1 7 C-2.98 7 -4.96 7 -7 7 C-3.375 1.125 -3.375 1.125 0 0 Z " fill="#454545" transform="translate(723,200)"/>
<path d="M0 0 C0.33 0.99 0.66 1.98 1 3 C-1.97 5.475 -1.97 5.475 -5 8 C-5.66 7.67 -6.32 7.34 -7 7 C-6.01 6.67 -5.02 6.34 -4 6 C-2.90833725 4.06669397 -2.90833725 4.06669397 -2 2 C-1.34 1.34 -0.68 0.68 0 0 Z " fill="#B2B2B2" transform="translate(282,200)"/>
<path d="M0 0 C0.66 0.99 1.32 1.98 2 3 C1.2575 3.680625 1.2575 3.680625 0.5 4.375 C-1.22609337 5.87635519 -1.22609337 5.87635519 -1 8 C-2.32 7.67 -3.64 7.34 -5 7 C-3.35 4.69 -1.7 2.38 0 0 Z " fill="#101010" transform="translate(767,288)"/>
</svg>
